<svg width="75" height="56" viewBox="0 0 75 56" fill="none" xmlns="http://www.w3.org/2000/svg">
<g clip-path="url(#clip0_2_255)">
<path d="M63.1181 39.8302C63.1181 51.6739 20.2174 51.6739 20.2174 39.8302C20.3437 34.2249 22.6591 28.8917 26.6681 24.972C30.677 21.0523 36.061 18.8577 41.6677 18.8577C47.2745 18.8577 52.6585 21.0523 56.6674 24.972C60.6764 28.8917 62.9918 34.2249 63.1181 39.8302Z" fill="#DBD0D9"/>
<path d="M70.281 44.9792C62.0949 44.9792 62.0949 41.1365 53.9524 41.1365C45.8099 41.1365 45.7663 44.9792 37.6238 44.9792C29.4813 44.9792 29.3506 41.093 21.1537 41.093C12.9567 41.093 12.9676 44.9357 4.82501 44.9357" stroke="#13294B" stroke-width="2" stroke-linecap="round" stroke-linejoin="round"/>
<path d="M62.5194 54.2428C56.2927 54.2428 56.2927 51.5867 50.0661 51.5867C43.8394 51.5867 43.7959 54.2428 37.5693 54.2428C31.3426 54.2428 31.3426 51.5867 25.0724 51.5867C18.8022 51.5867 18.8458 54.2428 12.6191 54.2428" stroke="#13294B" stroke-width="2" stroke-linecap="round" stroke-linejoin="round"/>
<path d="M52.8637 21.4985C48.7989 17.4456 43.293 15.1697 37.5529 15.1697C31.8128 15.1697 26.3069 17.4456 22.2421 21.4985" stroke="#13294B" stroke-width="2" stroke-linecap="round" stroke-linejoin="round"/>
<path d="M16.3203 41.2561C16.0105 39.7887 15.8573 38.2926 15.8631 36.7929C15.8631 33.9467 16.4237 31.1284 17.5129 28.4988C18.6021 25.8693 20.1986 23.48 22.2111 21.4674C24.2237 19.4548 26.613 17.8584 29.2426 16.7692C31.8721 15.68 34.6904 15.1194 37.5366 15.1194C40.3828 15.1194 43.2012 15.68 45.8308 16.7692C48.4603 17.8584 50.8495 19.4548 52.8621 21.4674C54.8747 23.48 56.4712 25.8693 57.5604 28.4988C58.6496 31.1284 59.2102 33.9467 59.2102 36.7929C59.216 38.2926 59.0627 39.7887 58.7529 41.2561" stroke="#13294B" stroke-width="2" stroke-linecap="round" stroke-linejoin="round"/>
<path d="M37.5366 8.04389V1.58862" stroke="#13294B" stroke-width="2" stroke-linecap="round" stroke-linejoin="round"/>
<path d="M22.8952 11.9627L19.6295 6.38916" stroke="#13294B" stroke-width="2" stroke-linecap="round" stroke-linejoin="round"/>
<path d="M12.1293 22.6849L6.55585 19.4192" stroke="#13294B" stroke-width="2" stroke-linecap="round" stroke-linejoin="round"/>
<path d="M8.21043 36.2161H1.75519" stroke="#13294B" stroke-width="2" stroke-linecap="round" stroke-linejoin="round"/>
<path d="M66.8737 36.2161H73.3289" stroke="#13294B" stroke-width="2" stroke-linecap="round" stroke-linejoin="round"/>
<path d="M62.9439 22.6849L68.5174 19.4192" stroke="#13294B" stroke-width="2" stroke-linecap="round" stroke-linejoin="round"/>
<path d="M52.1779 11.9627L55.4436 6.38916" stroke="#13294B" stroke-width="2" stroke-linecap="round" stroke-linejoin="round"/>
</g>
<defs>
<clipPath id="clip0_2_255">
<rect width="74" height="55" fill="white" transform="translate(0.666626 0.5)"/>
</clipPath>
</defs>
</svg>
