<svg width="66" height="66" viewBox="0 0 66 66" fill="none" xmlns="http://www.w3.org/2000/svg">
<g clip-path="url(#clip0_2_234)">
<path fill-rule="evenodd" clip-rule="evenodd" d="M33 54.2C44.598 54.2 54 44.798 54 33.2C54 21.602 44.598 12.2 33 12.2C21.402 12.2 12 21.602 12 33.2C12 44.798 21.402 54.2 33 54.2Z" stroke="#13294B" stroke-width="2" stroke-linecap="round" stroke-linejoin="round"/>
<path d="M33 57.9V64.9" stroke="#13294B" stroke-width="2" stroke-linecap="round" stroke-linejoin="round"/>
<path d="M33 1V8.4" stroke="#13294B" stroke-width="2" stroke-linecap="round" stroke-linejoin="round"/>
<path d="M8.19998 33H0.999985" stroke="#13294B" stroke-width="2" stroke-linecap="round" stroke-linejoin="round"/>
<path d="M64.9 33H57.7" stroke="#13294B" stroke-width="2" stroke-linecap="round" stroke-linejoin="round"/>
<path d="M15.6 15.6L10.4 10.4" stroke="#13294B" stroke-width="2" stroke-linecap="round" stroke-linejoin="round"/>
<path d="M55.5 55.5L50.5 50.5" stroke="#13294B" stroke-width="2" stroke-linecap="round" stroke-linejoin="round"/>
<path d="M50.3 15.6L55.5 10.4" stroke="#13294B" stroke-width="2" stroke-linecap="round" stroke-linejoin="round"/>
<path d="M30.2 27.8378C26.8 27.8378 24.7 30.8378 24.7 33.3378C24.7 38.6378 30.7 43.6378 35 46.7378C39.3 43.6378 45.2999 38.6378 45.2999 33.3378C45.2999 30.8378 43.1999 27.8378 39.7999 27.8378C37.8999 27.8378 36.2 29.3378 35 30.8378C33.7 29.3378 32.1 27.8378 30.2 27.8378Z" fill="#FAD29A"/>
<path d="M10.4 55.5L15.4 50.5" stroke="#13294B" stroke-width="2" stroke-linecap="round" stroke-linejoin="round"/>
<path fill-rule="evenodd" clip-rule="evenodd" d="M28.2 25.8378C24.8 25.8378 22.7 28.8378 22.7 31.3378C22.7 36.6378 28.7 41.6378 33 44.7378C37.3 41.6378 43.2999 36.6378 43.2999 31.3378C43.2999 28.8378 41.1999 25.8378 37.7999 25.8378C35.8999 25.8378 34.2 27.3378 33 28.8378C31.7 27.3378 30.1 25.8378 28.2 25.8378Z" stroke="#13294B" stroke-width="1.7962" stroke-linecap="round" stroke-linejoin="round"/>
</g>
<defs>
<clipPath id="clip0_2_234">
<rect width="66" height="66" fill="white"/>
</clipPath>
</defs>
</svg>
